<svg width="140" height="52" viewBox="0 0 140 52" fill="none" xmlns="http://www.w3.org/2000/svg">
<rect y="27.3125" width="14.4304" height="24.1882" fill="#3275B6"/>
<rect y="14.3281" width="14.4304" height="13.4975" fill="#DACD82"/>
<rect y="2.83398" width="14.4304" height="11.8877" fill="#DB4577"/>
<rect y="0.5" width="14.4304" height="2.8481" fill="#439788"/>
<path d="M28.7497 21L24.6697 9.8H26.9737L30.0777 18.792L33.1977 9.8H35.4857L31.4057 21H28.7497ZM36.0149 21V12.968H38.1749V21H36.0149ZM37.1029 11.848C36.7083 11.848 36.3883 11.736 36.1429 11.512C35.8976 11.2773 35.7749 10.984 35.7749 10.632C35.7749 10.28 35.8976 9.992 36.1429 9.768C36.3883 9.53333 36.7083 9.416 37.1029 9.416C37.4976 9.416 37.8176 9.53333 38.0629 9.768C38.3189 9.992 38.4469 10.28 38.4469 10.632C38.4469 10.984 38.3189 11.2773 38.0629 11.512C37.8176 11.736 37.4976 11.848 37.1029 11.848ZM39.5419 21V12.968H41.4619L41.6539 14.456C41.8566 14.104 42.1019 13.8053 42.3899 13.56C42.6779 13.304 43.0086 13.112 43.3819 12.984C43.7659 12.8453 44.1873 12.776 44.6459 12.776V15.064H43.9259C43.6059 15.064 43.3073 15.1013 43.0299 15.176C42.7633 15.24 42.5286 15.3573 42.3259 15.528C42.1233 15.6987 41.9686 15.928 41.8619 16.216C41.7553 16.504 41.7019 16.8667 41.7019 17.304V21H39.5419ZM48.5261 24.712C47.7581 24.712 47.0861 24.616 46.5101 24.424C45.9447 24.2427 45.5021 23.96 45.1821 23.576C44.8727 23.2027 44.7181 22.7387 44.7181 22.184C44.7181 21.8107 44.8141 21.4587 45.0061 21.128C45.1981 20.7973 45.4754 20.4987 45.8381 20.232C46.2114 19.9547 46.6754 19.72 47.2301 19.528L48.0461 20.6C47.5554 20.76 47.1981 20.9573 46.9741 21.192C46.7607 21.4373 46.6541 21.6933 46.6541 21.96C46.6541 22.2053 46.7341 22.4133 46.8941 22.584C47.0647 22.7547 47.2887 22.8773 47.5661 22.952C47.8541 23.0373 48.1741 23.08 48.5261 23.08C48.8567 23.08 49.1501 23.0373 49.4061 22.952C49.6621 22.8667 49.8594 22.7387 49.9981 22.568C50.1474 22.408 50.2221 22.216 50.2221 21.992C50.2221 21.704 50.1207 21.4693 49.9181 21.288C49.7154 21.1067 49.3101 20.9947 48.7021 20.952C48.1581 20.9093 47.6727 20.8507 47.2461 20.776C46.8301 20.6907 46.4621 20.5947 46.1421 20.488C45.8327 20.3707 45.5661 20.248 45.3421 20.12C45.1181 19.9813 44.9367 19.8427 44.7981 19.704V19.336L46.5101 17.48L48.0461 17.976L46.0461 19.976L46.6701 18.904C46.7767 18.9787 46.8834 19.048 46.9901 19.112C47.1074 19.1653 47.2514 19.2133 47.4221 19.256C47.5927 19.2987 47.8167 19.3413 48.0941 19.384C48.3714 19.4267 48.7181 19.4693 49.1341 19.512C49.8487 19.5653 50.4301 19.6933 50.8781 19.896C51.3261 20.0987 51.6567 20.3707 51.8701 20.712C52.0834 21.0533 52.1901 21.464 52.1901 21.944C52.1901 22.424 52.0567 22.872 51.7901 23.288C51.5341 23.7147 51.1341 24.056 50.5901 24.312C50.0567 24.5787 49.3687 24.712 48.5261 24.712ZM48.5421 18.632C47.8701 18.632 47.2887 18.504 46.7981 18.248C46.3181 17.9813 45.9447 17.6293 45.6781 17.192C45.4221 16.744 45.2941 16.248 45.2941 15.704C45.2941 15.16 45.4221 14.6693 45.6781 14.232C45.9447 13.7947 46.3181 13.4427 46.7981 13.176C47.2887 12.9093 47.8701 12.776 48.5421 12.776C49.2247 12.776 49.8061 12.9093 50.2861 13.176C50.7767 13.4427 51.1501 13.7947 51.4061 14.232C51.6621 14.6693 51.7901 15.16 51.7901 15.704C51.7901 16.248 51.6621 16.744 51.4061 17.192C51.1501 17.6293 50.7767 17.9813 50.2861 18.248C49.8061 18.504 49.2247 18.632 48.5421 18.632ZM48.5421 16.984C48.9581 16.984 49.2941 16.8773 49.5501 16.664C49.8061 16.44 49.9341 16.12 49.9341 15.704C49.9341 15.2987 49.8061 14.9893 49.5501 14.776C49.2941 14.5627 48.9581 14.456 48.5421 14.456C48.1367 14.456 47.8007 14.5627 47.5341 14.776C47.2781 14.9893 47.1501 15.2987 47.1501 15.704C47.1501 16.12 47.2781 16.44 47.5341 16.664C47.7901 16.8773 48.1261 16.984 48.5421 16.984ZM49.8701 14.488L49.5181 12.968H52.8461V14.248L49.8701 14.488ZM53.8493 21V12.968H56.0093V21H53.8493ZM54.9373 11.848C54.5426 11.848 54.2226 11.736 53.9773 11.512C53.732 11.2773 53.6093 10.984 53.6093 10.632C53.6093 10.28 53.732 9.992 53.9773 9.768C54.2226 9.53333 54.5426 9.416 54.9373 9.416C55.332 9.416 55.652 9.53333 55.8973 9.768C56.1533 9.992 56.2813 10.28 56.2813 10.632C56.2813 10.984 56.1533 11.2773 55.8973 11.512C55.652 11.736 55.332 11.848 54.9373 11.848ZM57.3763 21V12.968H59.2803L59.4403 14.28C59.6856 13.8213 60.0323 13.4587 60.4803 13.192C60.939 12.9147 61.483 12.776 62.1123 12.776C62.7843 12.776 63.3496 12.9147 63.8083 13.192C64.267 13.4693 64.6136 13.8747 64.8483 14.408C65.0936 14.9413 65.2163 15.6027 65.2163 16.392V21H63.0723V16.584C63.0723 15.944 62.9336 15.4533 62.6563 15.112C62.3896 14.7707 61.9736 14.6 61.4083 14.6C61.0456 14.6 60.7203 14.6853 60.4323 14.856C60.155 15.0267 59.9363 15.272 59.7763 15.592C59.6163 15.9013 59.5363 16.2853 59.5363 16.744V21H57.3763ZM66.4837 21V12.968H68.6437V21H66.4837ZM67.5717 11.848C67.177 11.848 66.857 11.736 66.6117 11.512C66.3664 11.2773 66.2437 10.984 66.2437 10.632C66.2437 10.28 66.3664 9.992 66.6117 9.768C66.857 9.53333 67.177 9.416 67.5717 9.416C67.9664 9.416 68.2864 9.53333 68.5317 9.768C68.7877 9.992 68.9157 10.28 68.9157 10.632C68.9157 10.984 68.7877 11.2773 68.5317 11.512C68.2864 11.736 67.9664 11.848 67.5717 11.848ZM72.7307 21.192C72.0587 21.192 71.504 21.0853 71.0667 20.872C70.6294 20.648 70.304 20.3547 70.0907 19.992C69.8774 19.6187 69.7707 19.2133 69.7707 18.776C69.7707 18.2747 69.8934 17.8427 70.1387 17.48C70.3947 17.1067 70.7787 16.8133 71.2907 16.6C71.8027 16.3867 72.4427 16.28 73.2107 16.28H75.2107C75.2107 15.8853 75.1574 15.56 75.0507 15.304C74.944 15.048 74.7787 14.856 74.5547 14.728C74.3307 14.6 74.032 14.536 73.6587 14.536C73.2534 14.536 72.9067 14.6267 72.6187 14.808C72.3414 14.9787 72.1654 15.2453 72.0907 15.608H69.9947C70.0587 15.032 70.2507 14.536 70.5707 14.12C70.9014 13.6933 71.3334 13.3627 71.8667 13.128C72.4 12.8933 73.0027 12.776 73.6747 12.776C74.432 12.776 75.088 12.904 75.6427 13.16C76.1974 13.4053 76.624 13.7733 76.9227 14.264C77.2214 14.744 77.3707 15.3307 77.3707 16.024V21H75.5467L75.3067 19.768C75.1894 19.9813 75.0507 20.1733 74.8907 20.344C74.7307 20.5147 74.544 20.664 74.3307 20.792C74.1174 20.92 73.8774 21.016 73.6107 21.08C73.344 21.1547 73.0507 21.192 72.7307 21.192ZM73.2427 19.528C73.52 19.528 73.7654 19.48 73.9787 19.384C74.2027 19.2773 74.3947 19.1387 74.5547 18.968C74.7147 18.7867 74.8374 18.584 74.9227 18.36C75.0187 18.1253 75.0827 17.88 75.1147 17.624V17.608H73.4667C73.136 17.608 72.864 17.6507 72.6507 17.736C72.448 17.8107 72.2987 17.9227 72.2027 18.072C72.1067 18.2213 72.0587 18.392 72.0587 18.584C72.0587 18.7867 72.1067 18.9573 72.2027 19.096C72.2987 19.2347 72.4374 19.3413 72.6187 19.416C72.8 19.4907 73.008 19.528 73.2427 19.528ZM86.7677 21.192C85.669 21.192 84.7037 20.9467 83.8717 20.456C83.0397 19.9653 82.3837 19.288 81.9037 18.424C81.4344 17.5493 81.1997 16.5413 81.1997 15.4C81.1997 14.2587 81.4344 13.256 81.9037 12.392C82.3837 11.5173 83.0397 10.8347 83.8717 10.344C84.7037 9.85333 85.669 9.608 86.7677 9.608C87.8664 9.608 88.8317 9.85333 89.6637 10.344C90.5064 10.8347 91.157 11.5173 91.6157 12.392C92.085 13.256 92.3197 14.2587 92.3197 15.4C92.3197 16.5413 92.085 17.5493 91.6157 18.424C91.157 19.288 90.5064 19.9653 89.6637 20.456C88.8317 20.9467 87.8664 21.192 86.7677 21.192ZM86.7677 19.256C87.4504 19.256 88.0424 19.1013 88.5437 18.792C89.045 18.472 89.429 18.024 89.6957 17.448C89.973 16.872 90.1117 16.1893 90.1117 15.4C90.1117 14.6 89.973 13.9173 89.6957 13.352C89.429 12.776 89.045 12.3333 88.5437 12.024C88.0424 11.7147 87.4504 11.56 86.7677 11.56C86.085 11.56 85.493 11.7147 84.9917 12.024C84.4904 12.3333 84.101 12.776 83.8237 13.352C83.5464 13.9173 83.4077 14.6 83.4077 15.4C83.4077 16.1893 83.5464 16.872 83.8237 17.448C84.101 18.024 84.4904 18.472 84.9917 18.792C85.493 19.1013 86.085 19.256 86.7677 19.256ZM93.2982 24.52V12.968H95.2182L95.4582 14.072C95.6289 13.8373 95.8315 13.624 96.0662 13.432C96.3009 13.2293 96.5782 13.0693 96.8982 12.952C97.2289 12.8347 97.6129 12.776 98.0502 12.776C98.8075 12.776 99.4742 12.9627 100.05 13.336C100.626 13.6987 101.08 14.2 101.41 14.84C101.752 15.4693 101.922 16.1893 101.922 17C101.922 17.8 101.752 18.52 101.41 19.16C101.069 19.7893 100.61 20.2853 100.034 20.648C99.4582 21.0107 98.8022 21.192 98.0662 21.192C97.4689 21.192 96.9515 21.0853 96.5142 20.872C96.0769 20.648 95.7249 20.344 95.4582 19.96V24.52H93.2982ZM97.5542 19.304C97.9809 19.304 98.3542 19.208 98.6742 19.016C99.0049 18.824 99.2609 18.552 99.4422 18.2C99.6342 17.848 99.7302 17.448 99.7302 17C99.7302 16.5413 99.6342 16.136 99.4422 15.784C99.2609 15.432 99.0049 15.16 98.6742 14.968C98.3542 14.7653 97.9809 14.664 97.5542 14.664C97.1382 14.664 96.7649 14.7653 96.4342 14.968C96.1035 15.16 95.8475 15.432 95.6662 15.784C95.4849 16.1253 95.3942 16.5253 95.3942 16.984C95.3942 17.4427 95.4849 17.848 95.6662 18.2C95.8475 18.552 96.1035 18.824 96.4342 19.016C96.7649 19.208 97.1382 19.304 97.5542 19.304ZM103.031 21V12.968H105.191V21H103.031ZM104.119 11.848C103.724 11.848 103.404 11.736 103.159 11.512C102.913 11.2773 102.791 10.984 102.791 10.632C102.791 10.28 102.913 9.992 103.159 9.768C103.404 9.53333 103.724 9.416 104.119 9.416C104.513 9.416 104.833 9.53333 105.079 9.768C105.335 9.992 105.463 10.28 105.463 10.632C105.463 10.984 105.335 11.2773 105.079 11.512C104.833 11.736 104.513 11.848 104.119 11.848ZM110.366 21.192C109.598 21.192 108.904 21.016 108.286 20.664C107.678 20.3013 107.192 19.8053 106.83 19.176C106.478 18.536 106.302 17.8053 106.302 16.984C106.302 16.152 106.478 15.4213 106.83 14.792C107.192 14.1627 107.683 13.672 108.302 13.32C108.92 12.9573 109.614 12.776 110.382 12.776C111.16 12.776 111.854 12.9573 112.462 13.32C113.08 13.672 113.566 14.1627 113.918 14.792C114.28 15.4213 114.462 16.152 114.462 16.984C114.462 17.8053 114.28 18.536 113.918 19.176C113.566 19.8053 113.08 20.3013 112.462 20.664C111.843 21.016 111.144 21.192 110.366 21.192ZM110.366 19.32C110.718 19.32 111.032 19.2347 111.31 19.064C111.598 18.8933 111.827 18.632 111.998 18.28C112.168 17.928 112.254 17.496 112.254 16.984C112.254 16.4613 112.168 16.0293 111.998 15.688C111.838 15.336 111.614 15.0747 111.326 14.904C111.048 14.7333 110.734 14.648 110.382 14.648C110.04 14.648 109.726 14.7333 109.438 14.904C109.15 15.0747 108.92 15.336 108.75 15.688C108.579 16.0293 108.494 16.4613 108.494 16.984C108.494 17.496 108.579 17.928 108.75 18.28C108.92 18.632 109.144 18.8933 109.422 19.064C109.71 19.2347 110.024 19.32 110.366 19.32ZM115.571 21V12.968H117.731V21H115.571ZM116.659 11.848C116.265 11.848 115.945 11.736 115.699 11.512C115.454 11.2773 115.331 10.984 115.331 10.632C115.331 10.28 115.454 9.992 115.699 9.768C115.945 9.53333 116.265 9.416 116.659 9.416C117.054 9.416 117.374 9.53333 117.619 9.768C117.875 9.992 118.003 10.28 118.003 10.632C118.003 10.984 117.875 11.2773 117.619 11.512C117.374 11.736 117.054 11.848 116.659 11.848ZM122.682 21.192C121.957 21.192 121.301 21.0107 120.714 20.648C120.128 20.2853 119.669 19.7893 119.338 19.16C119.008 18.52 118.842 17.7947 118.842 16.984C118.842 16.1733 119.008 15.4533 119.338 14.824C119.68 14.184 120.144 13.6827 120.73 13.32C121.328 12.9573 121.994 12.776 122.73 12.776C123.317 12.776 123.824 12.8827 124.25 13.096C124.688 13.3093 125.04 13.6133 125.306 14.008V9.48H127.466V21H125.546L125.306 19.896C125.146 20.12 124.944 20.3333 124.698 20.536C124.464 20.7387 124.181 20.8987 123.85 21.016C123.52 21.1333 123.13 21.192 122.682 21.192ZM123.194 19.304C123.621 19.304 123.994 19.208 124.314 19.016C124.645 18.8133 124.901 18.536 125.082 18.184C125.274 17.832 125.37 17.432 125.37 16.984C125.37 16.5253 125.274 16.12 125.082 15.768C124.901 15.416 124.645 15.144 124.314 14.952C123.994 14.76 123.621 14.664 123.194 14.664C122.789 14.664 122.421 14.76 122.09 14.952C121.76 15.144 121.498 15.416 121.306 15.768C121.125 16.12 121.034 16.52 121.034 16.968C121.034 17.4267 121.125 17.832 121.306 18.184C121.498 18.536 121.76 18.8133 122.09 19.016C122.421 19.208 122.789 19.304 123.194 19.304ZM30.5577 42.192C29.4484 42.192 28.4884 41.952 27.6777 41.472C26.867 40.9813 26.243 40.304 25.8057 39.44C25.3684 38.5653 25.1497 37.5573 25.1497 36.416C25.1497 35.2747 25.3684 34.2667 25.8057 33.392C26.243 32.5173 26.867 31.8347 27.6777 31.344C28.4884 30.8533 29.4484 30.608 30.5577 30.608C31.923 30.608 33.0377 30.944 33.9017 31.616C34.7657 32.288 35.3044 33.2373 35.5177 34.464H33.1497C33.011 33.8667 32.723 33.4027 32.2857 33.072C31.8484 32.7307 31.267 32.56 30.5417 32.56C29.8804 32.56 29.3097 32.72 28.8297 33.04C28.3497 33.3493 27.9817 33.792 27.7257 34.368C27.4804 34.9333 27.3577 35.616 27.3577 36.416C27.3577 37.2053 27.4804 37.888 27.7257 38.464C27.9817 39.04 28.3497 39.4827 28.8297 39.792C29.3097 40.1013 29.8804 40.256 30.5417 40.256C31.267 40.256 31.8484 40.1013 32.2857 39.792C32.723 39.472 33.011 39.0293 33.1497 38.464H35.5177C35.3044 39.6267 34.7657 40.5387 33.9017 41.2C33.0377 41.8613 31.923 42.192 30.5577 42.192ZM40.3062 42.192C39.5382 42.192 38.8449 42.016 38.2262 41.664C37.6182 41.3013 37.1329 40.8053 36.7702 40.176C36.4182 39.536 36.2422 38.8053 36.2422 37.984C36.2422 37.152 36.4182 36.4213 36.7702 35.792C37.1329 35.1627 37.6235 34.672 38.2422 34.32C38.8609 33.9573 39.5542 33.776 40.3222 33.776C41.1009 33.776 41.7942 33.9573 42.4022 34.32C43.0209 34.672 43.5062 35.1627 43.8582 35.792C44.2209 36.4213 44.4022 37.152 44.4022 37.984C44.4022 38.8053 44.2209 39.536 43.8582 40.176C43.5062 40.8053 43.0209 41.3013 42.4022 41.664C41.7835 42.016 41.0849 42.192 40.3062 42.192ZM40.3062 40.32C40.6582 40.32 40.9729 40.2347 41.2502 40.064C41.5382 39.8933 41.7675 39.632 41.9382 39.28C42.1089 38.928 42.1942 38.496 42.1942 37.984C42.1942 37.4613 42.1089 37.0293 41.9382 36.688C41.7782 36.336 41.5542 36.0747 41.2662 35.904C40.9889 35.7333 40.6742 35.648 40.3222 35.648C39.9809 35.648 39.6662 35.7333 39.3782 35.904C39.0902 36.0747 38.8609 36.336 38.6902 36.688C38.5195 37.0293 38.4342 37.4613 38.4342 37.984C38.4342 38.496 38.5195 38.928 38.6902 39.28C38.8609 39.632 39.0849 39.8933 39.3622 40.064C39.6502 40.2347 39.9649 40.32 40.3062 40.32ZM48.7598 42.192C48.0238 42.192 47.3838 42.0747 46.8398 41.84C46.3065 41.6053 45.8798 41.2853 45.5598 40.88C45.2505 40.464 45.0745 39.9893 45.0318 39.456H47.1758C47.2291 39.6587 47.3198 39.8453 47.4478 40.016C47.5758 40.176 47.7465 40.304 47.9598 40.4C48.1838 40.496 48.4398 40.544 48.7278 40.544C49.0158 40.544 49.2505 40.5067 49.4318 40.432C49.6131 40.3467 49.7465 40.24 49.8318 40.112C49.9278 39.9733 49.9758 39.8293 49.9758 39.68C49.9758 39.4453 49.9118 39.2693 49.7838 39.152C49.6558 39.0347 49.4638 38.9387 49.2078 38.864C48.9625 38.7893 48.6691 38.7147 48.3278 38.64C47.9545 38.5653 47.5811 38.4747 47.2078 38.368C46.8451 38.2507 46.5145 38.1067 46.2158 37.936C45.9278 37.7653 45.6985 37.5467 45.5278 37.28C45.3571 37.0133 45.2718 36.6827 45.2718 36.288C45.2718 35.8187 45.3998 35.392 45.6558 35.008C45.9118 34.624 46.2851 34.3253 46.7758 34.112C47.2665 33.888 47.8531 33.776 48.5358 33.776C49.5065 33.776 50.2745 33.9947 50.8398 34.432C51.4158 34.8693 51.7518 35.472 51.8478 36.24H49.8158C49.7625 35.984 49.6238 35.7867 49.3998 35.648C49.1758 35.5093 48.8878 35.44 48.5358 35.44C48.1518 35.44 47.8585 35.5093 47.6558 35.648C47.4638 35.7867 47.3678 35.9627 47.3678 36.176C47.3678 36.3253 47.4318 36.4587 47.5598 36.576C47.6878 36.6933 47.8745 36.7947 48.1198 36.88C48.3651 36.9547 48.6638 37.0293 49.0158 37.104C49.6345 37.232 50.1731 37.376 50.6318 37.536C51.1011 37.696 51.4691 37.9307 51.7358 38.24C52.0025 38.5387 52.1358 38.976 52.1358 39.552C52.1465 40.064 52.0131 40.5227 51.7358 40.928C51.4585 41.3227 51.0638 41.632 50.5518 41.856C50.0505 42.08 49.4531 42.192 48.7598 42.192ZM56.5298 42C55.9751 42 55.4845 41.9147 55.0578 41.744C54.6311 41.5627 54.3005 41.2693 54.0658 40.864C53.8311 40.448 53.7138 39.8827 53.7138 39.168V35.776H52.3378V33.968H53.7138L53.9698 31.776H55.8738V33.968H58.0018V35.776H55.8738V39.2C55.8738 39.5627 55.9538 39.8133 56.1138 39.952C56.2738 40.0907 56.5458 40.16 56.9298 40.16H57.9698V42H56.5298ZM62.0021 42V30.8H65.7941C67.0954 30.8 68.1674 31.0347 69.0101 31.504C69.8634 31.9627 70.4927 32.6133 70.8981 33.456C71.3141 34.288 71.5221 35.2693 71.5221 36.4C71.5221 37.5307 71.3141 38.5173 70.8981 39.36C70.4927 40.192 69.8634 40.8427 69.0101 41.312C68.1674 41.7707 67.0954 42 65.7941 42H62.0021ZM64.1621 40.144H65.6661C66.5834 40.144 67.3087 39.9947 67.8421 39.696C68.3754 39.3973 68.7541 38.9707 68.9781 38.416C69.2021 37.8507 69.3141 37.1787 69.3141 36.4C69.3141 35.6107 69.2021 34.9387 68.9781 34.384C68.7541 33.8187 68.3754 33.3867 67.8421 33.088C67.3087 32.7893 66.5834 32.64 65.6661 32.64H64.1621V40.144ZM75.2182 42.192C74.5462 42.192 73.9915 42.0853 73.5542 41.872C73.1169 41.648 72.7915 41.3547 72.5782 40.992C72.3649 40.6187 72.2582 40.2133 72.2582 39.776C72.2582 39.2747 72.3809 38.8427 72.6262 38.48C72.8822 38.1067 73.2662 37.8133 73.7782 37.6C74.2902 37.3867 74.9302 37.28 75.6982 37.28H77.6982C77.6982 36.8853 77.6449 36.56 77.5382 36.304C77.4315 36.048 77.2662 35.856 77.0422 35.728C76.8182 35.6 76.5195 35.536 76.1462 35.536C75.7409 35.536 75.3942 35.6267 75.1062 35.808C74.8289 35.9787 74.6529 36.2453 74.5782 36.608H72.4822C72.5462 36.032 72.7382 35.536 73.0582 35.12C73.3889 34.6933 73.8209 34.3627 74.3542 34.128C74.8875 33.8933 75.4902 33.776 76.1622 33.776C76.9195 33.776 77.5755 33.904 78.1302 34.16C78.6849 34.4053 79.1115 34.7733 79.4102 35.264C79.7089 35.744 79.8582 36.3307 79.8582 37.024V42H78.0342L77.7942 40.768C77.6769 40.9813 77.5382 41.1733 77.3782 41.344C77.2182 41.5147 77.0315 41.664 76.8182 41.792C76.6049 41.92 76.3649 42.016 76.0982 42.08C75.8315 42.1547 75.5382 42.192 75.2182 42.192ZM75.7302 40.528C76.0075 40.528 76.2529 40.48 76.4662 40.384C76.6902 40.2773 76.8822 40.1387 77.0422 39.968C77.2022 39.7867 77.3249 39.584 77.4102 39.36C77.5062 39.1253 77.5702 38.88 77.6022 38.624V38.608H75.9542C75.6235 38.608 75.3515 38.6507 75.1382 38.736C74.9355 38.8107 74.7862 38.9227 74.6902 39.072C74.5942 39.2213 74.5462 39.392 74.5462 39.584C74.5462 39.7867 74.5942 39.9573 74.6902 40.096C74.7862 40.2347 74.9249 40.3413 75.1062 40.416C75.2875 40.4907 75.4955 40.528 75.7302 40.528ZM84.5798 42C84.0251 42 83.5345 41.9147 83.1078 41.744C82.6811 41.5627 82.3505 41.2693 82.1158 40.864C81.8811 40.448 81.7638 39.8827 81.7638 39.168V35.776H80.3878V33.968H81.7638L82.0198 31.776H83.9238V33.968H86.0518V35.776H83.9238V39.2C83.9238 39.5627 84.0038 39.8133 84.1638 39.952C84.3238 40.0907 84.5958 40.16 84.9798 40.16H86.0198V42H84.5798ZM89.7744 42.192C89.1024 42.192 88.5478 42.0853 88.1104 41.872C87.6731 41.648 87.3478 41.3547 87.1344 40.992C86.9211 40.6187 86.8144 40.2133 86.8144 39.776C86.8144 39.2747 86.9371 38.8427 87.1824 38.48C87.4384 38.1067 87.8224 37.8133 88.3344 37.6C88.8464 37.3867 89.4864 37.28 90.2544 37.28H92.2544C92.2544 36.8853 92.2011 36.56 92.0944 36.304C91.9878 36.048 91.8224 35.856 91.5984 35.728C91.3744 35.6 91.0758 35.536 90.7024 35.536C90.2971 35.536 89.9504 35.6267 89.6624 35.808C89.3851 35.9787 89.2091 36.2453 89.1344 36.608H87.0384C87.1024 36.032 87.2944 35.536 87.6144 35.12C87.9451 34.6933 88.3771 34.3627 88.9104 34.128C89.4438 33.8933 90.0464 33.776 90.7184 33.776C91.4758 33.776 92.1318 33.904 92.6864 34.16C93.2411 34.4053 93.6678 34.7733 93.9664 35.264C94.2651 35.744 94.4144 36.3307 94.4144 37.024V42H92.5904L92.3504 40.768C92.2331 40.9813 92.0944 41.1733 91.9344 41.344C91.7744 41.5147 91.5878 41.664 91.3744 41.792C91.1611 41.92 90.9211 42.016 90.6544 42.08C90.3878 42.1547 90.0944 42.192 89.7744 42.192ZM90.2864 40.528C90.5638 40.528 90.8091 40.48 91.0224 40.384C91.2464 40.2773 91.4384 40.1387 91.5984 39.968C91.7584 39.7867 91.8811 39.584 91.9664 39.36C92.0624 39.1253 92.1264 38.88 92.1584 38.624V38.608H90.5104C90.1798 38.608 89.9078 38.6507 89.6944 38.736C89.4918 38.8107 89.3424 38.9227 89.2464 39.072C89.1504 39.2213 89.1024 39.392 89.1024 39.584C89.1024 39.7867 89.1504 39.9573 89.2464 40.096C89.3424 40.2347 89.4811 40.3413 89.6624 40.416C89.8438 40.4907 90.0518 40.528 90.2864 40.528ZM101.219 42V32.544H97.9554V30.8H106.643V32.544H103.379V42H101.219ZM109.697 42.192C108.929 42.192 108.235 42.016 107.617 41.664C107.009 41.3013 106.523 40.8053 106.161 40.176C105.809 39.536 105.633 38.8053 105.633 37.984C105.633 37.152 105.809 36.4213 106.161 35.792C106.523 35.1627 107.014 34.672 107.633 34.32C108.251 33.9573 108.945 33.776 109.713 33.776C110.491 33.776 111.185 33.9573 111.793 34.32C112.411 34.672 112.897 35.1627 113.249 35.792C113.611 36.4213 113.793 37.152 113.793 37.984C113.793 38.8053 113.611 39.536 113.249 40.176C112.897 40.8053 112.411 41.3013 111.793 41.664C111.174 42.016 110.475 42.192 109.697 42.192ZM109.697 40.32C110.049 40.32 110.363 40.2347 110.641 40.064C110.929 39.8933 111.158 39.632 111.329 39.28C111.499 38.928 111.585 38.496 111.585 37.984C111.585 37.4613 111.499 37.0293 111.329 36.688C111.169 36.336 110.945 36.0747 110.657 35.904C110.379 35.7333 110.065 35.648 109.713 35.648C109.371 35.648 109.057 35.7333 108.769 35.904C108.481 36.0747 108.251 36.336 108.081 36.688C107.91 37.0293 107.825 37.4613 107.825 37.984C107.825 38.496 107.91 38.928 108.081 39.28C108.251 39.632 108.475 39.8933 108.753 40.064C109.041 40.2347 109.355 40.32 109.697 40.32ZM118.662 42.192C117.894 42.192 117.201 42.016 116.582 41.664C115.974 41.3013 115.489 40.8053 115.126 40.176C114.774 39.536 114.598 38.8053 114.598 37.984C114.598 37.152 114.774 36.4213 115.126 35.792C115.489 35.1627 115.98 34.672 116.598 34.32C117.217 33.9573 117.91 33.776 118.678 33.776C119.457 33.776 120.15 33.9573 120.758 34.32C121.377 34.672 121.862 35.1627 122.214 35.792C122.577 36.4213 122.758 37.152 122.758 37.984C122.758 38.8053 122.577 39.536 122.214 40.176C121.862 40.8053 121.377 41.3013 120.758 41.664C120.14 42.016 119.441 42.192 118.662 42.192ZM118.662 40.32C119.014 40.32 119.329 40.2347 119.606 40.064C119.894 39.8933 120.124 39.632 120.294 39.28C120.465 38.928 120.55 38.496 120.55 37.984C120.55 37.4613 120.465 37.0293 120.294 36.688C120.134 36.336 119.91 36.0747 119.622 35.904C119.345 35.7333 119.03 35.648 118.678 35.648C118.337 35.648 118.022 35.7333 117.734 35.904C117.446 36.0747 117.217 36.336 117.046 36.688C116.876 37.0293 116.79 37.4613 116.79 37.984C116.79 38.496 116.876 38.928 117.046 39.28C117.217 39.632 117.441 39.8933 117.718 40.064C118.006 40.2347 118.321 40.32 118.662 40.32ZM123.82 42V30.48H125.98V42H123.82Z" fill="#1E1E1E"/>
</svg>
